<svg id="Layer_1" data-name="Layer 1" xmlns="http://www.w3.org/2000/svg" viewBox="0 0 356.86 129.85"><defs><style>.cls-1{fill:#f4f6f7;}.cls-2{fill:#f5f9fb;}.cls-3{fill:#f16667;}.cls-4{fill:#fff;}</style></defs><polygon class="cls-1" points="311.64 123.91 311.64 84.31 276.3 92.98 276.3 5.69 240.96 14.36 240.96 52.89 240.96 123.91 311.64 123.91"/><polygon class="cls-1" points="356.86 92.98 356.86 58.52 356.86 5.69 321.52 14.36 321.52 52.89 321.52 123.91 356.86 123.91 356.86 92.98"/><path class="cls-2" d="M136.09,58.41a1,1,0,0,0,.47,1.83c7.71.92,14.67,1.3,21.73-3.8C170.07,48,182.78,40.82,195,33c1-.67,2.51-1.63,2.51-3,0-1.23-1.56-.92-3.7-.94-8.09-.06-13.39,1.84-19.6,5.92-11.92,7.83-21.45,13.1-33.67,20.43C139.86,55.8,138.07,57,136.09,58.41Z"/><circle class="cls-3" cx="160.55" cy="31.92" r="0.59"/><path class="cls-1" d="M152,20.75a2.86,2.86,0,0,0-2.09-1,2.78,2.78,0,0,0-1.51,5.1l11.74,7.57a.58.58,0,0,0,.36.12.7.7,0,0,0,.54-1.13Z"/><path class="cls-4" d="M217.47,15.64c-1.63.12-3,.28-3.92.43l-.73.16a61,61,0,0,1,6.29,4.39l3-1.48C220.62,17.9,219.07,16.74,217.47,15.64Z"/><path class="cls-1" d="M184.87,12.77a2,2,0,0,0-1.94-2.52,1.89,1.89,0,0,0-1.83,1.39l-4.27,14.18a.88.88,0,0,0,.88,1.12.82.82,0,0,0,.76-.49L184.77,13Z"/><path class="cls-4" d="M166.92,9.67c-.15-1.3-.27-2.36-.35-3a63.4,63.4,0,0,0-6.1,1.9l.89,2.89A58,58,0,0,1,166.92,9.67Z"/><path class="cls-1" d="M148.94,69.65c-.13-.12-.42-.3-.59.14,0,.2-.09.41-.14.61-1.33,6.11-2.64,12.06-3.91,18.2a3.64,3.64,0,0,0,.17,2.48c4.45,6.55,7.45,13.43,16.1,16.93,4,1.62,8.84,4.3,14.94,5-6.34-10.66-12.18-20.47-18-30.29C154.82,78.27,152.53,73.51,148.94,69.65Z"/><path class="cls-1" d="M168.89,27,166.49,5.9a3.18,3.18,0,0,0-3.2-2.9,3.25,3.25,0,0,0-3.23,4.24l6.24,20.25a1.27,1.27,0,0,0,1.24.93A1.31,1.31,0,0,0,168.89,27Z"/><path class="cls-2" d="M122.87,73.41c-.86,1.17-1.72,2.32-2.58,3.48a61.82,61.82,0,0,0,4.58,15.63l4.24,1.87A58.94,58.94,0,0,1,122.87,73.41Z"/><path class="cls-1" d="M144.31,64.93c-4.31-.23-8.62-.56-12.93-.86h-.19c-1.45,0-2.16,1.16-3,2.13-4.63,6.24-9.2,12.53-13.89,18.72-1.29,1.7-1.07,2.55.82,3.37,6.95,3,13.9,6,20.77,9.17a4.26,4.26,0,0,0,1.67.47c.94,0,1.42-.73,1.75-2.23,2.09-9.33,4.28-18.62,6.43-27.93C146.06,66.39,146.51,65,144.31,64.93Z"/><path class="cls-1" d="M136.09,58.48a1,1,0,0,0,.47,1.82c7.71.93,14.67,1.31,21.73-3.79C170.07,48,182.78,40.89,195,33.07c1-.67,2.51-1.62,2.51-3,0-1.23-1.56-.92-3.7-.94-8.09-.06-13.39,1.84-19.6,5.92-11.92,7.82-21.45,13.1-33.67,20.42C139.86,55.86,138.07,57.05,136.09,58.48Z"/><path class="cls-1" d="M226.22,15.65c-1.13-.1-2.37-.15-3.64-.15a64.12,64.12,0,0,0-9,.64c-6.74,1.15-12.43,4.62-18.63,7.82a.73.73,0,0,0-.39.69.72.72,0,0,0,.56.63c3.24.76,6,1.55,8.33,1.55a7.52,7.52,0,0,0,2.89-.51c9-3.59,11.65-5.19,20.22-9.35a.68.68,0,0,0,.36-.56A.74.74,0,0,0,226.22,15.65Z"/><path class="cls-1" d="M236.21,75.63q-13-22.08-26-44.15c-1.43-2.42-3.29-2.65-5.5-1.23l-50,32.09c-2.28,1.46-2.63,3.51-1.32,5.74q12.9,22,25.91,44a9.15,9.15,0,0,0,.61.82c1.58,1.94,3.37,1.9,5.32.64Q210,97.59,234.77,81.66C237.28,80.06,237.69,78.14,236.21,75.63ZM196.59,51.37A4.5,4.5,0,0,1,200,49.69a3.94,3.94,0,0,1,2.07.57c2,1.3,4.36,3.5,4.66,6.64a4.36,4.36,0,0,1-1.21,3.26,4.66,4.66,0,0,1-3.37,1.48,4.29,4.29,0,0,1-1.57-.3c-2.87-1.24-4.22-4.2-4.86-6.49A4.07,4.07,0,0,1,196.59,51.37ZM173.28,74.56a1.54,1.54,0,0,1-1.35-.87,1.4,1.4,0,0,1,.12-1.49,10.61,10.61,0,0,1,1.56-1.81L176,67.7a3.33,3.33,0,0,0-2.73-1,6.92,6.92,0,0,0-.9.06,11.42,11.42,0,0,0-4.51,1.77,1.72,1.72,0,0,1-1,.3,1.81,1.81,0,0,1-1.55-.88,1.78,1.78,0,0,1,.4-2.32,14,14,0,0,1,15.93-1.35,3.45,3.45,0,0,1,.51.32l.19.12h0c1.05.71,3.61,3,3.65,3.84A1.67,1.67,0,0,1,185,70.26l-.14.07-.15,0h-.14a18.14,18.14,0,0,0-3.93.89,6.5,6.5,0,0,0-1,.37c-.82.37-1.62.8-2.47,1.25-1,.56-2.12,1.14-3.25,1.61A1.38,1.38,0,0,1,173.28,74.56ZM221.67,67h0a1,1,0,0,1-.41.09,1.12,1.12,0,0,1-.43-.08,17.06,17.06,0,0,0-2-.59c0,9.57-5,18.4-12.62,22.11a32.53,32.53,0,0,1-14.83,3.86c-.34,0-.68,0-1,0a22.26,22.26,0,0,1-12-3.65c-.3.69-.64,1.5-.93,2.33a1,1,0,0,1-1,.73,1.1,1.1,0,0,1-.4-.08l-.11,0-.07-.09c-1.56-1.79-.62-4.92.1-6.33A8.76,8.76,0,0,1,180,81.17a.94.94,0,0,1,.43-.1,1,1,0,0,1,.89.54,1,1,0,0,1,0,1c-.26.53-.53,1-.8,1.58l-.76,1.51a23.49,23.49,0,0,0,8.43,1.48,30.71,30.71,0,0,0,11-2.11c9.79-3.48,13.66-9.66,16.86-19.1a18.8,18.8,0,0,0-2.07-.11h-.16a1,1,0,0,1-.95-.67,1,1,0,0,1,.22-1.1,5.47,5.47,0,0,1,3.91-1.56,5.88,5.88,0,0,1,3.47,1.1s1.84,1.32,1.81,2.48A1.1,1.1,0,0,1,221.67,67Z"/><path class="cls-1" d="M110.14,87.84a5.83,5.83,0,0,1,1.37-5c3.24-4.29,6.5-8.71,9.64-13l.09-.11c.69-.94,1.38-1.88,2.08-2.81V14.36L83.92,4.7,61.79,55.87,39.66,4.7.27,14.36V123.92H35.79V80.79l22.67,43.13h6.64L87.78,80.79v43.13h35.53V95.66l-9.58-4.16A5.82,5.82,0,0,1,110.14,87.84Z"/><path class="cls-1" d="M212.68,12.68a62.25,62.25,0,0,0-30.55-8A63.08,63.08,0,0,0,169.52,6l0,.49.27,2.39,0,.13a59.3,59.3,0,0,1,38.41,4.8A36.44,36.44,0,0,1,212.68,12.68Z"/><path class="cls-1" d="M157.21,9.86a62.59,62.59,0,0,0-37.66,57.41c0,1.51.08,3,.19,4.49.47-.64,1-1.29,1.41-1.93l.09-.11,1.33-1.8c0-.21,0-.43,0-.65a59.44,59.44,0,0,1,22.36-46.44,5.38,5.38,0,0,1,4.93-3.57,60.53,60.53,0,0,1,8.27-4.49Z"/><path class="cls-1" d="M224.93,21.65c-.72.36-1.4.7-2.05,1l-.16.09-.7.34a59.54,59.54,0,1,1-89.9,76.5l-4.82-2.17a62.57,62.57,0,1,0,97.63-75.77Z"/></svg>