<svg id="Layer_1" data-name="Layer 1" xmlns="http://www.w3.org/2000/svg" viewBox="0 0 356.86 129.85"><defs><style>.cls-1{fill:#1f2637;}.cls-2{fill:#5e45df;}.cls-3{fill:#edce30;}.cls-4{fill:#f4f6f7;}.cls-5{fill:#cb8c16;}.cls-6{fill:#f16667;}.cls-7{fill:#02c283;}</style></defs><polygon class="cls-1" points="83.92 4.7 61.79 55.87 39.66 4.7 0.27 14.36 0.27 52.89 0.27 123.92 35.79 123.92 35.79 81.04 35.8 80.79 58.47 123.92 61.79 123.92 65.11 123.92 87.78 80.79 87.79 81.04 87.79 123.92 123.32 123.92 123.32 52.89 123.32 14.36 83.92 4.7"/><polygon class="cls-1" points="311.64 123.91 311.64 84.31 276.3 92.98 276.3 5.69 240.96 14.36 240.96 52.89 240.96 123.91 311.64 123.91"/><polygon class="cls-1" points="356.86 92.98 356.86 58.52 356.86 5.69 321.52 14.36 321.52 52.89 321.52 123.91 356.86 123.91 356.86 92.98"/><circle class="cls-2" cx="182.13" cy="67.28" r="62.58"/><path class="cls-3" d="M179.26,112q-13-22-25.91-44c-1.31-2.24-1-4.29,1.32-5.75l50-32.09c2.21-1.42,4.07-1.19,5.5,1.24q13,22.07,26,44.14c1.48,2.51,1.07,4.43-1.44,6Q210,97.49,185.19,113.46c-1.95,1.26-3.74,1.3-5.32-.64A7.92,7.92,0,0,1,179.26,112Z"/><path class="cls-4" d="M136.09,58.41a1,1,0,0,0,.47,1.83c7.71.92,14.67,1.3,21.73-3.8C170.07,48,182.78,40.82,195,33c1-.67,2.51-1.63,2.51-3,0-1.23-1.56-.92-3.7-.94-8.09-.06-13.39,1.84-19.6,5.92-11.92,7.83-21.45,13.1-33.67,20.43C139.86,55.8,138.07,57,136.09,58.41Z"/><path class="cls-5" d="M148.33,69.83c-1.36,6.32-2.72,12.44-4,18.77a3.64,3.64,0,0,0,.17,2.48c4.45,6.55,7.45,13.43,16.1,16.93,4,1.62,8.84,4.3,14.94,5-6.34-10.66-12.18-20.47-18-30.29-2.68-4.5-5-9.26-8.56-13.12C148.81,69.52,148.49,69.33,148.33,69.83Z"/><circle class="cls-6" cx="160.55" cy="31.92" r="0.59"/><path class="cls-7" d="M137.56,99.43a5.41,5.41,0,0,1-2.29-.61c-6.75-3.11-13.66-6.1-20.74-9.15A3.26,3.26,0,0,1,113.1,84c3.28-4.33,6.57-8.79,9.74-13.1l4.14-5.6.4-.48a4.84,4.84,0,0,1,3.81-2.26h.29l3.69.25c3,.22,6.15.44,9.22.6A3.23,3.23,0,0,1,147,64.59a3.8,3.8,0,0,1,.26,3.3l-1.67,7.18c-1.6,6.86-3.24,14-4.81,21-.19.85-.77,3.41-3.22,3.41Z"/><path class="cls-7" d="M203.42,28.33a30.94,30.94,0,0,1-7-1.18l-1.69-.41a2.24,2.24,0,0,1-.52-4.17l2.85-1.5c5.29-2.81,10.29-5.47,16.22-6.48a65.57,65.57,0,0,1,9.28-.66c1.4,0,2.67.06,3.78.16a2.25,2.25,0,0,1,2,1.78,2.22,2.22,0,0,1-1.09,2.41L221.83,21c-4.88,2.42-8.11,4-15,6.77a9.17,9.17,0,0,1-3.44.61Z"/><path class="cls-7" d="M177.71,27.94a2,2,0,0,1-1.57-.78,1.83,1.83,0,0,1-.26-1.64l4.26-14.17a2.9,2.9,0,0,1,2.79-2.1,3.1,3.1,0,0,1,2.45,1.19,2.91,2.91,0,0,1,.45,2.59,2.15,2.15,0,0,1-.16.43l-6.3,13.41A1.79,1.79,0,0,1,177.71,27.94Z"/><path class="cls-7" d="M167.54,29.92a2.76,2.76,0,0,1-2.67-2L158.63,7.68a4.84,4.84,0,0,1,.74-4.31,5,5,0,0,1,3.92-1.87A4.69,4.69,0,0,1,168,5.66l2.41,21.13A2.83,2.83,0,0,1,169.7,29,2.91,2.91,0,0,1,167.54,29.92Z"/><path class="cls-7" d="M160.46,33.55a1.65,1.65,0,0,1-.93-.29L147.82,25.7a3.66,3.66,0,0,1-1.56-4.22,3.87,3.87,0,0,1,3.61-2.72,3.79,3.79,0,0,1,2.82,1.31l0,0c.31.31.76.83,1.48,1.68l7.62,9a1.62,1.62,0,0,1,.26,1.74A1.76,1.76,0,0,1,160.46,33.55Z"/><path class="cls-2" d="M131.19,64.07h.19c4.31.3,8.62.63,12.93.86,2.2.11,1.75,1.46,1.43,2.84-2.15,9.31-4.34,18.6-6.43,27.93-.33,1.5-.81,2.23-1.75,2.23a4.26,4.26,0,0,1-1.67-.47c-6.87-3.17-13.82-6.18-20.77-9.17-1.89-.82-2.11-1.67-.82-3.37,4.69-6.19,9.26-12.48,13.89-18.72.84-1,1.55-2.13,3-2.13m0-3a6.27,6.27,0,0,0-5,2.81l-.3.36-.08.09-.06.08L121.65,70c-3.18,4.31-6.47,8.77-9.75,13.1a5.44,5.44,0,0,0-1.28,4.6A5.35,5.35,0,0,0,113.94,91c7.07,3,14,6,20.7,9.15a7,7,0,0,0,2.92.74c1.66,0,3.83-.79,4.68-4.58,1.58-7,3.23-14.15,4.83-21,.53-2.28,1.07-4.57,1.59-6.85l.06-.22a5.21,5.21,0,0,0-.52-4.54,4.73,4.73,0,0,0-3.73-1.76c-3.07-.16-6.2-.38-9.23-.59l-3.66-.26Z"/><path class="cls-2" d="M222.58,15.43c1.27,0,2.51.05,3.64.15a.75.75,0,0,1,.31,1.39c-8.57,4.16-11.25,5.76-20.22,9.35a7.52,7.52,0,0,1-2.89.51c-2.36,0-5.09-.79-8.33-1.55a.74.74,0,0,1-.17-1.38c6.2-3.21,11.89-6.68,18.63-7.83a64.12,64.12,0,0,1,9-.64m0-3a65.65,65.65,0,0,0-9.53.69c-6.17,1-11.51,3.88-16.68,6.62-.93.5-1.87,1-2.83,1.49a3.75,3.75,0,0,0,.84,7c.6.14,1.17.27,1.71.41a31.56,31.56,0,0,0,7.33,1.22,10.51,10.51,0,0,0,4-.72c6.91-2.77,10.16-4.38,15.08-6.81l5.34-2.63.07,0,.08-.05a3.74,3.74,0,0,0-1.5-7c-1.14-.11-2.46-.17-3.91-.17Z"/><path class="cls-2" d="M182.93,10.25a2,2,0,0,1,1.94,2.52l-.1.27-6.3,13.41a.82.82,0,0,1-.76.49.88.88,0,0,1-.88-1.12l4.27-14.18a1.89,1.89,0,0,1,1.83-1.39m0-2h0A3.91,3.91,0,0,0,179.2,11l-4.28,14.23a2.78,2.78,0,0,0,.42,2.51,2.93,2.93,0,0,0,2.37,1.19,2.81,2.81,0,0,0,2.57-1.65l6.3-13.4a3.5,3.5,0,0,0,.2-.54v0a3.9,3.9,0,0,0-.63-3.47,4.07,4.07,0,0,0-3.24-1.58Z"/><path class="cls-2" d="M163.29,3a3.18,3.18,0,0,1,3.2,2.9L168.89,27a1.31,1.31,0,0,1-1.35,1.46,1.27,1.27,0,0,1-1.24-.93L160.06,7.24A3.25,3.25,0,0,1,163.29,3m0-3h0a6.48,6.48,0,0,0-5.11,2.46,6.27,6.27,0,0,0-1,5.54l0,.06,0,.06,6.24,20.26a4.22,4.22,0,0,0,4.1,3A4.39,4.39,0,0,0,170.81,30a4.25,4.25,0,0,0,1.06-3.34l-1.2-10.54-.83-7.24-.27-2.39-.07-.67c0-.12,0-.25-.06-.36h0A6.14,6.14,0,0,0,163.29,0Z"/><path class="cls-2" d="M149.87,19.76a2.86,2.86,0,0,1,2.09,1l9,10.67a.7.7,0,0,1-.54,1.13.58.58,0,0,1-.36-.12l-11.74-7.57a2.78,2.78,0,0,1,1.51-5.1m0-2h0a4.88,4.88,0,0,0-4.56,3.41,4.66,4.66,0,0,0,1.88,5.31l0,0,.05,0L159,34.1a2.57,2.57,0,0,0,1.46.45,2.72,2.72,0,0,0,2.47-1.63,2.61,2.61,0,0,0-.42-2.81L158,24.79l-3.11-3.66c-.71-.84-1.16-1.38-1.5-1.73l0,0a4.81,4.81,0,0,0-3.55-1.62Z"/><path class="cls-1" d="M201.84,50.68c2.17,1.44,4.17,3.53,4.43,6.25a4.07,4.07,0,0,1-5.45,4c-2.5-1.08-3.87-3.63-4.57-6.14a3.82,3.82,0,0,1,5.59-4.06Z"/><path class="cls-1" d="M182.05,65.13h0l-.17-.11a3.3,3.3,0,0,0-.48-.31A13.49,13.49,0,0,0,166,66a1.31,1.31,0,0,0,1.53,2.12,11.83,11.83,0,0,1,4.7-1.86c3.49-.43,4.33,1.5,4.33,1.5l-2.59,3a11,11,0,0,0-1.52,1.76,1,1,0,0,0,1.21,1.5c2-.86,3.88-2,5.72-2.86a6.78,6.78,0,0,1,1.06-.4,16.91,16.91,0,0,1,4.27-.9,1.18,1.18,0,0,0,.78-1.22C185.47,68.11,183.41,66,182.05,65.13Z"/><path class="cls-1" d="M220.12,64a5.35,5.35,0,0,0-6.75.4.55.55,0,0,0,.4.92,20.91,20.91,0,0,1,2.88.18c-3.29,9.93-7.25,16.4-17.37,20-6.37,2.48-13.83,3-20.23.43.59-1.2,1.2-2.38,1.8-3.59a.52.52,0,0,0-.66-.74,8.31,8.31,0,0,0-3.84,3.84c-.8,1.58-1.42,4.33-.16,5.78a.53.53,0,0,0,.71-.34c.35-1,.77-2,1.2-2.94a21.62,21.62,0,0,0,12.21,3.91,31.7,31.7,0,0,0,15.61-3.78c8.27-4,12.6-13.41,12.33-22.3a19.05,19.05,0,0,1,2.7.75.61.61,0,0,0,.46,0C222.39,66,220.66,64.39,220.12,64Z"/></svg>