<svg id="Layer_1" data-name="Layer 1" xmlns="http://www.w3.org/2000/svg" viewBox="0 0 356.86 129.85"><defs><style>.cls-1{fill:#5e45df;}.cls-2{fill:#f4f6f7;}.cls-3{fill:#f5f9fb;}.cls-4{fill:#f16667;}.cls-5{fill:#02c283;}.cls-6{fill:#fff;}.cls-7{fill:#cf8a00;}.cls-8{fill:#57bd8e;}.cls-9{fill:#cb8c16;}.cls-10{fill:#edce30;}.cls-11{fill:#1f2637;}</style></defs><ellipse class="cls-1" cx="182.42" cy="68.25" rx="59.8" ry="61.6"/><polygon class="cls-2" points="311.64 123.91 311.64 84.31 276.3 92.98 276.3 5.69 240.96 14.36 240.96 52.89 240.96 123.91 311.64 123.91"/><polygon class="cls-2" points="356.86 92.98 356.86 58.52 356.86 5.69 321.52 14.36 321.52 52.89 321.52 123.91 356.86 123.91 356.86 92.98"/><path class="cls-3" d="M136.09,58.41a1,1,0,0,0,.47,1.83c7.71.92,14.67,1.3,21.73-3.8C170.07,48,182.78,40.82,195,33c1-.67,2.51-1.63,2.51-3,0-1.23-1.56-.92-3.7-.94-8.09-.06-13.39,1.84-19.6,5.92-11.92,7.83-21.45,13.1-33.67,20.43C139.86,55.8,138.07,57,136.09,58.41Z"/><circle class="cls-4" cx="160.55" cy="31.92" r="0.59"/><path class="cls-5" d="M152,20.75a2.86,2.86,0,0,0-2.09-1,2.78,2.78,0,0,0-1.51,5.1l11.74,7.57a.58.58,0,0,0,.36.12.7.7,0,0,0,.54-1.13Z"/><path class="cls-6" d="M217.47,15.64c-1.63.12-3,.28-3.92.43l-.73.16a61,61,0,0,1,6.29,4.39l3-1.48C220.62,17.9,219.07,16.74,217.47,15.64Z"/><path class="cls-5" d="M184.87,12.77a2,2,0,0,0-1.94-2.52,1.89,1.89,0,0,0-1.83,1.39l-4.27,14.18a.88.88,0,0,0,.88,1.12.82.82,0,0,0,.76-.49L184.77,13Z"/><path class="cls-6" d="M166.92,9.67c-.15-1.3-.27-2.36-.35-3a63.4,63.4,0,0,0-6.1,1.9l.89,2.89A58,58,0,0,1,166.92,9.67Z"/><path class="cls-7" d="M148.94,69.65c-.13-.12-.42-.3-.59.14,0,.2-.09.41-.14.61-1.33,6.11-2.64,12.06-3.91,18.2a3.64,3.64,0,0,0,.17,2.48c4.45,6.55,7.45,13.43,16.1,16.93,4,1.62,8.84,4.3,14.94,5-6.34-10.66-12.18-20.47-18-30.29C154.82,78.27,152.53,73.51,148.94,69.65Z"/><path class="cls-5" d="M168.89,27,166.49,5.9a3.18,3.18,0,0,0-3.2-2.9,3.25,3.25,0,0,0-3.23,4.24l6.24,20.25a1.27,1.27,0,0,0,1.24.93A1.31,1.31,0,0,0,168.89,27Z"/><path class="cls-3" d="M122.87,73.41c-.86,1.17-1.72,2.32-2.58,3.48a61.82,61.82,0,0,0,4.58,15.63l4.24,1.87A58.94,58.94,0,0,1,122.87,73.41Z"/><path class="cls-8" d="M144.31,64.93c-4.31-.23-8.62-.56-12.93-.86h-.19c-1.45,0-2.16,1.16-3,2.13-4.63,6.24-9.2,12.53-13.89,18.72-1.29,1.7-1.07,2.55.82,3.37,6.95,3,13.9,6,20.77,9.17a4.26,4.26,0,0,0,1.67.47c.94,0,1.42-.73,1.75-2.23,2.09-9.33,4.28-18.62,6.43-27.93C146.06,66.39,146.51,65,144.31,64.93Z"/><path class="cls-2" d="M136.09,58.48a1,1,0,0,0,.47,1.82c7.71.93,14.67,1.31,21.73-3.79C170.07,48,182.78,40.89,195,33.07c1-.67,2.51-1.62,2.51-3,0-1.23-1.56-.92-3.7-.94-8.09-.06-13.39,1.84-19.6,5.92-11.92,7.82-21.45,13.1-33.67,20.42C139.86,55.86,138.07,57.05,136.09,58.48Z"/><path class="cls-9" d="M148.33,69.9c-1.36,6.31-2.72,12.44-4,18.76a3.66,3.66,0,0,0,.17,2.49c4.45,6.55,7.45,13.43,16.1,16.93,4,1.62,8.84,4.3,14.94,5-6.34-10.66-12.18-20.47-18-30.29-2.68-4.5-5-9.26-8.56-13.13C148.81,69.59,148.49,69.4,148.33,69.9Z"/><path class="cls-5" d="M144.31,65c-4.31-.22-8.62-.56-12.93-.85h-.19c-1.45,0-2.16,1.17-3,2.14C123.56,72.51,119,78.79,114.3,85c-1.29,1.7-1.07,2.55.82,3.37,6.95,3,13.9,6,20.77,9.17a4.26,4.26,0,0,0,1.67.47c.94,0,1.42-.74,1.75-2.24,2.09-9.32,4.28-18.62,6.43-27.92C146.06,66.46,146.51,65.11,144.31,65Z"/><path class="cls-5" d="M226.22,15.65c-1.13-.1-2.37-.15-3.64-.15a64.12,64.12,0,0,0-9,.64c-6.74,1.15-12.43,4.62-18.63,7.82a.73.73,0,0,0-.39.69.72.72,0,0,0,.56.63c3.24.76,6,1.55,8.33,1.55a7.52,7.52,0,0,0,2.89-.51c9-3.59,11.65-5.19,20.22-9.35a.68.68,0,0,0,.36-.56A.74.74,0,0,0,226.22,15.65Z"/><path class="cls-10" d="M236.21,75.63q-13-22.08-26-44.15c-1.43-2.42-3.29-2.65-5.5-1.23l-50,32.09c-2.28,1.46-2.63,3.51-1.32,5.74q12.9,22,25.91,44a9.15,9.15,0,0,0,.61.82c1.58,1.94,3.37,1.9,5.32.64Q210,97.59,234.77,81.66C237.28,80.06,237.69,78.14,236.21,75.63ZM196.59,51.37A4.5,4.5,0,0,1,200,49.69a3.94,3.94,0,0,1,2.07.57c2,1.3,4.36,3.5,4.66,6.64a4.36,4.36,0,0,1-1.21,3.26,4.66,4.66,0,0,1-3.37,1.48,4.29,4.29,0,0,1-1.57-.3c-2.87-1.24-4.22-4.2-4.86-6.49A4.07,4.07,0,0,1,196.59,51.37ZM173.28,74.56a1.54,1.54,0,0,1-1.35-.87,1.4,1.4,0,0,1,.12-1.49,10.61,10.61,0,0,1,1.56-1.81L176,67.7a3.33,3.33,0,0,0-2.73-1,6.92,6.92,0,0,0-.9.06,11.42,11.42,0,0,0-4.51,1.77,1.72,1.72,0,0,1-1,.3,1.81,1.81,0,0,1-1.55-.88,1.78,1.78,0,0,1,.4-2.32,14,14,0,0,1,15.93-1.35,3.45,3.45,0,0,1,.51.32l.19.12h0c1.05.71,3.61,3,3.65,3.84A1.67,1.67,0,0,1,185,70.26l-.14.07-.15,0h-.14a18.14,18.14,0,0,0-3.93.89,6.5,6.5,0,0,0-1,.37c-.82.37-1.62.8-2.47,1.25-1,.56-2.12,1.14-3.25,1.61A1.38,1.38,0,0,1,173.28,74.56ZM221.67,67h0a1,1,0,0,1-.41.09,1.12,1.12,0,0,1-.43-.08,17.06,17.06,0,0,0-2-.59c0,9.57-5,18.4-12.62,22.11a32.53,32.53,0,0,1-14.83,3.86c-.34,0-.68,0-1,0a22.26,22.26,0,0,1-12-3.65c-.3.69-.64,1.5-.93,2.33a1,1,0,0,1-1,.73,1.1,1.1,0,0,1-.4-.08l-.11,0-.07-.09c-1.56-1.79-.62-4.92.1-6.33A8.76,8.76,0,0,1,180,81.17a.94.94,0,0,1,.43-.1,1,1,0,0,1,.89.54,1,1,0,0,1,0,1c-.26.53-.53,1-.8,1.58l-.76,1.51a23.49,23.49,0,0,0,8.43,1.48,30.71,30.71,0,0,0,11-2.11c9.79-3.48,13.66-9.66,16.86-19.1a18.8,18.8,0,0,0-2.07-.11h-.16a1,1,0,0,1-.95-.67,1,1,0,0,1,.22-1.1,5.47,5.47,0,0,1,3.91-1.56,5.88,5.88,0,0,1,3.47,1.1s1.84,1.32,1.81,2.48A1.1,1.1,0,0,1,221.67,67Z"/><path class="cls-2" d="M110.14,87.84a5.83,5.83,0,0,1,1.37-5c3.24-4.29,6.5-8.71,9.64-13l.09-.11c.69-.94,1.38-1.88,2.08-2.81V14.36L83.92,4.7,61.79,55.87,39.66,4.7.27,14.36V123.92H35.79V80.79l22.67,43.13h6.64L87.78,80.79v43.13h35.53V95.66l-9.58-4.16A5.82,5.82,0,0,1,110.14,87.84Z"/><path class="cls-2" d="M212.68,12.68a62.25,62.25,0,0,0-30.55-8A63.08,63.08,0,0,0,169.52,6l0,.49.27,2.39,0,.13a59.3,59.3,0,0,1,38.41,4.8A36.44,36.44,0,0,1,212.68,12.68Z"/><path class="cls-2" d="M157.21,9.86a62.59,62.59,0,0,0-37.66,57.41c0,1.51.08,3,.19,4.49.47-.64,1-1.29,1.41-1.93l.09-.11,1.33-1.8c0-.21,0-.43,0-.65a59.44,59.44,0,0,1,22.36-46.44,5.38,5.38,0,0,1,4.93-3.57,60.53,60.53,0,0,1,8.27-4.49Z"/><path class="cls-2" d="M224.93,21.65c-.72.36-1.4.7-2.05,1l-.16.09-.7.34a59.54,59.54,0,1,1-89.9,76.5l-4.82-2.17a62.57,62.57,0,1,0,97.63-75.77Z"/><circle class="cls-1" cx="182.13" cy="67.28" r="62.58"/><path class="cls-10" d="M179.26,112q-13-22-25.91-44c-1.31-2.24-1-4.29,1.32-5.75l50-32.09c2.21-1.42,4.07-1.19,5.5,1.24q13,22.07,26,44.14c1.48,2.51,1.07,4.43-1.44,6Q210,97.49,185.19,113.46c-1.95,1.26-3.74,1.3-5.32-.64A7.92,7.92,0,0,1,179.26,112Z"/><path class="cls-2" d="M136.09,58.41a1,1,0,0,0,.47,1.83c7.71.92,14.67,1.3,21.73-3.8C170.07,48,182.78,40.82,195,33c1-.67,2.51-1.63,2.51-3,0-1.23-1.56-.92-3.7-.94-8.09-.06-13.39,1.84-19.6,5.92-11.92,7.83-21.45,13.1-33.67,20.43C139.86,55.8,138.07,57,136.09,58.41Z"/><path class="cls-9" d="M148.33,69.83c-1.36,6.32-2.72,12.44-4,18.77a3.64,3.64,0,0,0,.17,2.48c4.45,6.55,7.45,13.43,16.1,16.93,4,1.62,8.84,4.3,14.94,5-6.34-10.66-12.18-20.47-18-30.29-2.68-4.5-5-9.26-8.56-13.12C148.81,69.52,148.49,69.33,148.33,69.83Z"/><circle class="cls-4" cx="160.55" cy="31.92" r="0.59"/><path class="cls-5" d="M137.56,99.43a5.41,5.41,0,0,1-2.29-.61c-6.75-3.11-13.66-6.1-20.74-9.15A3.26,3.26,0,0,1,113.1,84c3.28-4.33,6.57-8.79,9.74-13.1l4.14-5.6.4-.48a4.84,4.84,0,0,1,3.81-2.26h.29l3.69.25c3,.22,6.15.44,9.22.6A3.23,3.23,0,0,1,147,64.59a3.8,3.8,0,0,1,.26,3.3l-1.67,7.18c-1.6,6.86-3.24,14-4.81,21-.19.85-.77,3.41-3.22,3.41Z"/><path class="cls-5" d="M203.42,28.33a30.94,30.94,0,0,1-7-1.18l-1.69-.41a2.24,2.24,0,0,1-.52-4.17l2.85-1.5c5.29-2.81,10.29-5.47,16.22-6.48a65.57,65.57,0,0,1,9.28-.66c1.4,0,2.67.06,3.78.16a2.25,2.25,0,0,1,2,1.78,2.22,2.22,0,0,1-1.09,2.41L221.83,21c-4.88,2.42-8.11,4-15,6.77a9.17,9.17,0,0,1-3.44.61Z"/><path class="cls-5" d="M177.71,27.94a2,2,0,0,1-1.57-.78,1.83,1.83,0,0,1-.26-1.64l4.26-14.17a2.9,2.9,0,0,1,2.79-2.1,3.1,3.1,0,0,1,2.45,1.19,2.91,2.91,0,0,1,.45,2.59,2.15,2.15,0,0,1-.16.43l-6.3,13.41A1.79,1.79,0,0,1,177.71,27.94Z"/><path class="cls-5" d="M167.54,29.92a2.76,2.76,0,0,1-2.67-2L158.63,7.68a4.84,4.84,0,0,1,.74-4.31,5,5,0,0,1,3.92-1.87A4.69,4.69,0,0,1,168,5.66l2.41,21.13A2.83,2.83,0,0,1,169.7,29,2.91,2.91,0,0,1,167.54,29.92Z"/><path class="cls-5" d="M160.46,33.55a1.65,1.65,0,0,1-.93-.29L147.82,25.7a3.66,3.66,0,0,1-1.56-4.22,3.87,3.87,0,0,1,3.61-2.72,3.79,3.79,0,0,1,2.82,1.31l0,0c.31.31.76.83,1.48,1.68l7.62,9a1.62,1.62,0,0,1,.26,1.74A1.76,1.76,0,0,1,160.46,33.55Z"/><path class="cls-1" d="M131.19,64.07h.19c4.31.3,8.62.63,12.93.86,2.2.11,1.75,1.46,1.43,2.84-2.15,9.31-4.34,18.6-6.43,27.93-.33,1.5-.81,2.23-1.75,2.23a4.26,4.26,0,0,1-1.67-.47c-6.87-3.17-13.82-6.18-20.77-9.17-1.89-.82-2.11-1.67-.82-3.37,4.69-6.19,9.26-12.48,13.89-18.72.84-1,1.55-2.13,3-2.13m0-3a6.27,6.27,0,0,0-5,2.81l-.3.36-.08.09-.06.08L121.65,70c-3.18,4.31-6.47,8.77-9.75,13.1a5.44,5.44,0,0,0-1.28,4.6A5.35,5.35,0,0,0,113.94,91c7.07,3,14,6,20.7,9.15a7,7,0,0,0,2.92.74c1.66,0,3.83-.79,4.68-4.58,1.58-7,3.23-14.15,4.83-21,.53-2.28,1.07-4.57,1.59-6.85l.06-.22a5.21,5.21,0,0,0-.52-4.54,4.73,4.73,0,0,0-3.73-1.76c-3.07-.16-6.2-.38-9.23-.59l-3.66-.26Z"/><path class="cls-1" d="M222.58,15.43c1.27,0,2.51.05,3.64.15a.75.75,0,0,1,.31,1.39c-8.57,4.16-11.25,5.76-20.22,9.35a7.52,7.52,0,0,1-2.89.51c-2.36,0-5.09-.79-8.33-1.55a.74.74,0,0,1-.17-1.38c6.2-3.21,11.89-6.68,18.63-7.83a64.12,64.12,0,0,1,9-.64m0-3a65.65,65.65,0,0,0-9.53.69c-6.17,1-11.51,3.88-16.68,6.62-.93.5-1.87,1-2.83,1.49a3.75,3.75,0,0,0,.84,7c.6.14,1.17.27,1.71.41a31.56,31.56,0,0,0,7.33,1.22,10.51,10.51,0,0,0,4-.72c6.91-2.77,10.16-4.38,15.08-6.81l5.34-2.63.07,0,.08-.05a3.74,3.74,0,0,0-1.5-7c-1.14-.11-2.46-.17-3.91-.17Z"/><path class="cls-1" d="M182.93,10.25a2,2,0,0,1,1.94,2.52l-.1.27-6.3,13.41a.82.82,0,0,1-.76.49.88.88,0,0,1-.88-1.12l4.27-14.18a1.89,1.89,0,0,1,1.83-1.39m0-2h0A3.91,3.91,0,0,0,179.2,11l-4.28,14.23a2.78,2.78,0,0,0,.42,2.51,2.93,2.93,0,0,0,2.37,1.19,2.81,2.81,0,0,0,2.57-1.65l6.3-13.4a3.5,3.5,0,0,0,.2-.54v0a3.9,3.9,0,0,0-.63-3.47,4.07,4.07,0,0,0-3.24-1.58Z"/><path class="cls-1" d="M163.29,3a3.18,3.18,0,0,1,3.2,2.9L168.89,27a1.31,1.31,0,0,1-1.35,1.46,1.27,1.27,0,0,1-1.24-.93L160.06,7.24A3.25,3.25,0,0,1,163.29,3m0-3h0a6.48,6.48,0,0,0-5.11,2.46,6.27,6.27,0,0,0-1,5.54l0,.06,0,.06,6.24,20.26a4.22,4.22,0,0,0,4.1,3A4.39,4.39,0,0,0,170.81,30a4.25,4.25,0,0,0,1.06-3.34l-1.2-10.54-.83-7.24-.27-2.39-.07-.67c0-.12,0-.25-.06-.36h0A6.14,6.14,0,0,0,163.29,0Z"/><path class="cls-1" d="M149.87,19.76a2.86,2.86,0,0,1,2.09,1l9,10.67a.7.7,0,0,1-.54,1.13.58.58,0,0,1-.36-.12l-11.74-7.57a2.78,2.78,0,0,1,1.51-5.1m0-2h0a4.88,4.88,0,0,0-4.56,3.41,4.66,4.66,0,0,0,1.88,5.31l0,0,.05,0L159,34.1a2.57,2.57,0,0,0,1.46.45,2.72,2.72,0,0,0,2.47-1.63,2.61,2.61,0,0,0-.42-2.81L158,24.79l-3.11-3.66c-.71-.84-1.16-1.38-1.5-1.73l0,0a4.81,4.81,0,0,0-3.55-1.62Z"/><path class="cls-11" d="M201.84,50.68c2.17,1.44,4.17,3.53,4.43,6.25a4.07,4.07,0,0,1-5.45,4c-2.5-1.08-3.87-3.63-4.57-6.14a3.82,3.82,0,0,1,5.59-4.06Z"/><path class="cls-11" d="M182.05,65.13h0l-.17-.11a3.3,3.3,0,0,0-.48-.31A13.49,13.49,0,0,0,166,66a1.31,1.31,0,0,0,1.53,2.12,11.83,11.83,0,0,1,4.7-1.86c3.49-.43,4.33,1.5,4.33,1.5l-2.59,3a11,11,0,0,0-1.52,1.76,1,1,0,0,0,1.21,1.5c2-.86,3.88-2,5.72-2.86a6.78,6.78,0,0,1,1.06-.4,16.91,16.91,0,0,1,4.27-.9,1.18,1.18,0,0,0,.78-1.22C185.47,68.11,183.41,66,182.05,65.13Z"/><path class="cls-11" d="M220.12,64a5.35,5.35,0,0,0-6.75.4.55.55,0,0,0,.4.92,20.91,20.91,0,0,1,2.88.18c-3.29,9.93-7.25,16.4-17.37,20-6.37,2.48-13.83,3-20.23.43.59-1.2,1.2-2.38,1.8-3.59a.52.52,0,0,0-.66-.74,8.31,8.31,0,0,0-3.84,3.84c-.8,1.58-1.42,4.33-.16,5.78a.53.53,0,0,0,.71-.34c.35-1,.77-2,1.2-2.94a21.62,21.62,0,0,0,12.21,3.91,31.7,31.7,0,0,0,15.61-3.78c8.27-4,12.6-13.41,12.33-22.3a19.05,19.05,0,0,1,2.7.75.61.61,0,0,0,.46,0C222.39,66,220.66,64.39,220.12,64Z"/></svg>