<svg id="Layer_1" data-name="Layer 1" xmlns="http://www.w3.org/2000/svg" viewBox="0 0 237.08 79.05"><defs><style>.cls-1{fill:#133e4f;}.cls-2{fill:#a71e8f;}.cls-3{fill:#facc2e;}.cls-4{fill:#f6f6f6;}.cls-5{fill:#b0751a;}.cls-6{fill:#57302e;}</style></defs><path class="cls-1" d="M8.87,79.58q-3.4,0-4.83-2.06a18,18,0,0,1-2.39-5.94C1.33,70,1.05,68.15.81,66.2s-.42-4-.54-6.12S.07,55.76,0,53.52-.08,49-.08,46.74C0,43.87.11,41,.27,38.14s.38-5.62.66-8.27.61-5,1-7.1a32.19,32.19,0,0,1,1.22-5,18.82,18.82,0,0,1,4.12-7A15.07,15.07,0,0,1,13.17,7a21,21,0,0,1,7-1.17,13.83,13.83,0,0,1,7.25,1.85A12.25,12.25,0,0,1,32.16,13a40.84,40.84,0,0,1,1.91,4.89q.95,2.93,1.82,6.21c.58,2.19,1.11,4.37,1.61,6.54s.93,4.17,1.28,6a47.38,47.38,0,0,0,1.53,6c.57,1.73,1.44,2.6,2.59,2.6s2-.72,2.6-2.15a24.63,24.63,0,0,0,1.34-4.78q.48-3,1.08-6.51c.4-2.31.84-4.6,1.34-6.89s1-4.47,1.61-6.54,1.17-3.9,1.77-5.49A12.17,12.17,0,0,1,57.2,7.63a14.19,14.19,0,0,1,7.62-1.85A16,16,0,0,1,71.14,7a15.89,15.89,0,0,1,5.14,3.56,20.12,20.12,0,0,1,3.82,5.73,33.24,33.24,0,0,1,2.36,7.46A91.67,91.67,0,0,1,84,34.2q.54,5.79.66,12.12v6.33q0,3.16-.12,6.3t-.33,6.15q-.21,3-.63,5.88a9.42,9.42,0,0,1-2.65,5,7.73,7.73,0,0,1-5.23,1.59,4.82,4.82,0,0,1-3.31-1.08,5.11,5.11,0,0,1-1.58-3c-.08-1.32-.16-2.73-.24-4.24s-.17-3.08-.27-4.69-.19-3.23-.27-4.87-.16-3.24-.24-4.83q-.18-4.71-.48-9.11c-.2-2.92-.42-5.55-.68-7.88a31.63,31.63,0,0,0-.93-5.28,17,17,0,0,0-2.3-5.08,4.42,4.42,0,0,0-3.79-1.73,4.88,4.88,0,0,0-3.67,1.7,11,11,0,0,0-2.36,5.11c-.2.91-.44,2.1-.72,3.55s-.56,3-.86,4.78-.6,3.52-.9,5.37-.58,3.66-.86,5.43-.54,3.42-.78,4.93a15,15,0,0,1-2.95,7A7.27,7.27,0,0,1,42.72,66q-4.41,0-6.32-3.1a35.25,35.25,0,0,1-3.47-8.36c-.24-1.15-.53-2.56-.89-4.21S31.3,46.92,30.9,45s-.79-3.8-1.19-5.67-.77-3.58-1.11-5.11-.64-2.78-.92-3.73A10.48,10.48,0,0,0,25.56,26a4.22,4.22,0,0,0-3.2-1.46,4.07,4.07,0,0,0-3.79,2,19.31,19.31,0,0,0-1.88,6.27c-.16.95-.3,2.2-.42,3.73s-.21,3.23-.29,5.1-.15,3.89-.21,6-.09,4.33-.09,6.56,0,4.5,0,6.57-.07,4-.15,5.79-.17,3.37-.27,4.75a32.4,32.4,0,0,1-.39,3.37,7.88,7.88,0,0,1-2.06,3.55A5.4,5.4,0,0,1,8.87,79.58Z" transform="translate(0.08 -0.83)"/><path class="cls-1" d="M187.51,79.88A16.44,16.44,0,0,1,178,77.4q-3.61-2.48-5.46-8.21a67.06,67.06,0,0,1-2.51-15.47q-.3-2.44-.45-6t-.18-7.8c0-2.78,0-5.55,0-8.3s.09-5.27.15-7.58.13-4.2.21-5.67a78.06,78.06,0,0,1,.87-9.46A11.1,11.1,0,0,1,173,3.27a5.85,5.85,0,0,1,4.62-1.85q3.76,0,5.2,2.3t1.43,7.73c0,1.12,0,2.59-.12,4.42s-.18,3.86-.3,6.09-.24,4.54-.38,6.93-.26,4.72-.36,7-.19,4.42-.27,6.39-.12,3.63-.12,5c0,4.73.15,8.59.45,11.55a28.89,28.89,0,0,0,1.34,6.86A7,7,0,0,0,186.64,69a4.92,4.92,0,0,0,3,.93,7.56,7.56,0,0,0,3.79-.87c1-.58,1.94-1.16,2.77-1.73a4.46,4.46,0,0,1,2.57-.87,2.69,2.69,0,0,1,2.24,1,4.06,4.06,0,0,1,.81,2.62,6.45,6.45,0,0,1-1.2,3.68,11.81,11.81,0,0,1-3.19,3.1,18.13,18.13,0,0,1-9.88,3Z" transform="translate(0.08 -0.83)"/><path class="cls-1" d="M220,78.38a7.72,7.72,0,0,1-4.44-1.13,6,6,0,0,1-2.3-3.55,23.82,23.82,0,0,1-.66-6.12c0-1.36,0-3,.09-4.9s.15-4,.27-6.24.26-4.52.42-6.81.32-4.5.5-6.65.38-4.08.6-5.79.43-3.09.63-4.12a11,11,0,0,1,3.55-5.59,9.45,9.45,0,0,1,5.94-1.82,5.37,5.37,0,0,1,5,2.57,14.34,14.34,0,0,1,1.55,7.34c0,1.2,0,2.81-.12,4.84s-.2,4.28-.36,6.75-.33,5-.51,7.58-.39,5.06-.65,7.43-.51,4.46-.75,6.27a21.91,21.91,0,0,1-.84,4.09,9.07,9.07,0,0,1-3.13,4.54A8.32,8.32,0,0,1,220,78.38Zm4.06-62q-5.61,0-7.7-1.91a5.75,5.75,0,0,1-2.09-4.3A6.73,6.73,0,0,1,216.52,5,14.66,14.66,0,0,1,222,1.9,20.19,20.19,0,0,1,228.4.83a11.78,11.78,0,0,1,4.3.77A7,7,0,0,1,235.84,4,7.12,7.12,0,0,1,237,8.23a6.33,6.33,0,0,1-1.79,4.66,10.67,10.67,0,0,1-4.72,2.62A23.08,23.08,0,0,1,224.1,16.35Z" transform="translate(0.08 -0.83)"/><path class="cls-2" d="M106.92,66.85c-3.67-4.08-7.49-7.15-12.54-8.92-.53-.18-1-.45-1.54-.67C90,56.07,89.67,55,91.31,52.32c.5-.79,1.24-1.44,1.7-2.25,1.48-2.65,4.43-4.4,4.64-7.84.78-13.2,7-23.07,18.53-29.48A2.73,2.73,0,0,0,117.86,10c-.23-2,1.21-3,2.51-3.43,1.53-.53,3.48-.43,4.3,1.51.56,1.35,1.41,1.17,2.49,1,5.61-.87,11.29-.74,16.43,1.56,4.55,2,9,2.16,13.76,1.94,1.93-.09,4.49-1,5.19,1.92.67,2.75-1.82,3.18-3.57,3.88-1.55.63-1.29,1.24-.38,2.17a15.1,15.1,0,0,1,1,1.34,34.76,34.76,0,0,1-2.48,46A34.4,34.4,0,0,1,106.92,66.85Zm3.88-11.62a1.93,1.93,0,0,0,.09,1.37c2.5,3.62,3.9,8.25,9.06,9.37,2.68.59,5,2.4,8.44,2.83-3.55-5.88-6.83-11.3-10.1-16.73-1.5-2.48-2.78-5.11-4.8-7.25l-.17-.4-.15.4C112.37,48.29,111.56,51.76,110.8,55.23ZM133.93,69Q148,60.19,162,51.43a2.12,2.12,0,0,0,.82-3.32Q155.45,36,148.09,23.82c-.81-1.34-1.86-1.46-3.11-.68Q130.81,32,116.65,40.8A2.08,2.08,0,0,0,115.9,44q7.3,12.12,14.67,24.2a4.94,4.94,0,0,0,.35.45A2.06,2.06,0,0,0,133.93,69ZM93.79,53.26c-.73.93-.6,1.4.47,1.85,3.94,1.65,7.87,3.31,11.76,5,1.21.55,1.66.24,1.94-1,1.18-5.13,2.42-10.25,3.64-15.37.18-.76.43-1.5-.81-1.56-2.45-.13-4.88-.31-7.32-.47-.9-.06-1.32.61-1.81,1.17C99,46.39,96.45,49.85,93.79,53.26ZM118.7,37.59c6.67-4.68,13.86-8.6,20.8-12.9.59-.37,1.93-.56,1.42-1.67-.31-.67-1.35-.15-2-.22a17.08,17.08,0,0,0-11.15,3C121,30.07,113.94,33.92,107,38a3.1,3.1,0,0,0-1.65,1.6C110.15,40.13,114.39,40.61,118.7,37.59Zm19.71-17.28c7.51,1.71,13.77-.84,19.94-4.94C150.81,14.28,144.63,17.14,138.41,20.31Zm-18.58-9.18q1.67,5.07,3.38,10.13c.17.49.26,1.26,1,1s.41-.94.36-1.47c-.36-3.72-1.43-7.35-1.41-11.12,0-.61-.49-1.18-1-1.08s-1.54-.46-2,.35A2.18,2.18,0,0,0,119.83,11.13Zm-3.66,8.06c-.71-.8-1.53-1.7-2.56-.6s-.11,1.83.83,2.42l5.37,3.36.4-.48C118.87,22.33,117.52,20.75,116.17,19.19Zm17.24-4.89c.37-.77.41-1.47-.51-1.85s-1.27.43-1.49,1.13c-.73,2.33-1.42,4.67-2.13,7l1,.18Z" transform="translate(0.08 -0.83)"/><path class="cls-3" d="M130.57,68.16Q123.24,56.07,115.9,44a2.08,2.08,0,0,1,.75-3.16Q130.81,32,145,23.14c1.25-.78,2.3-.66,3.11.68Q155.44,36,162.82,48.11a2.12,2.12,0,0,1-.82,3.32Q148,60.18,133.93,69a2.06,2.06,0,0,1-3-.36A4.94,4.94,0,0,1,130.57,68.16ZM150.9,45.08c-1.71,6.76-12.64,11.88-19,8.91-.69-.33-1.5-.59-.83-1.61.26-.4.55-.89.06-1.23s-1,.11-1.42.52A5.16,5.16,0,0,0,128.35,55c0,1.41,0,1.52,1.43.88.77-.34,1.27.09,1.84.27,6.49,2,12-.47,17.22-3.87,2.27-1.49,2.48-4.27,3.46-6.56.36-.86-.18-2.34,1.75-2.14.68.07.39-.93,0-1.27-1.18-.92-2.43-1.73-4.51-.69C151.65,42.37,151.24,43.76,150.9,45.08Zm-24.72,2.4c2.52-.29,4.41-2.29,7-2.39.91,0,.38-1-.05-1.5-1.63-2-8-2.75-10.09-1.26-.61.43-1,1-.61,1.69.54,1,1,0,1.57-.13,1.38-.27,2.77-1.39,4.29.07C127.7,45.25,126.11,45.75,126.18,47.48Zm14.53-13c-1.32,1.65,0,3.21,1.13,4.45.93,1,2.38,1.83,3.44.59,1.35-1.59.17-3.14-.83-4.46C143.25,34.13,141.85,33.1,140.71,34.52Z" transform="translate(0.08 -0.83)"/><path class="cls-3" d="M101.66,43c-2.62,3.43-5.21,6.89-7.87,10.3-.73.93-.6,1.4.47,1.85,3.94,1.65,7.87,3.31,11.76,5,1.21.55,1.66.24,1.94-1,1.18-5.13,2.42-10.25,3.64-15.37.18-.76.43-1.5-.81-1.56-2.45-.13-4.88-.31-7.32-.47C102.57,41.73,102.15,42.4,101.66,43Z" transform="translate(0.08 -0.83)"/><path class="cls-4" d="M105.37,39.55c4.78.58,9,1.06,13.33-2,6.67-4.68,13.86-8.6,20.8-12.9.59-.37,1.93-.56,1.42-1.67-.31-.67-1.35-.15-2-.22a17.08,17.08,0,0,0-11.15,3C121,30.07,113.94,33.92,107,38A3.1,3.1,0,0,0,105.37,39.55Z" transform="translate(0.08 -0.83)"/><path class="cls-5" d="M113.17,44.82c-.8,3.47-1.61,6.94-2.37,10.41a1.93,1.93,0,0,0,.09,1.37c2.5,3.62,3.9,8.25,9.06,9.37,2.68.59,5,2.4,8.44,2.83-3.55-5.88-6.83-11.3-10.1-16.73-1.5-2.48-2.78-5.11-4.8-7.25Z" transform="translate(0.08 -0.83)"/><path class="cls-3" d="M158.35,15.37c-7.54-1.09-13.72,1.77-19.94,4.94C145.92,22,152.18,19.47,158.35,15.37Z" transform="translate(0.08 -0.83)"/><path class="cls-4" d="M120.17,8.92a2.18,2.18,0,0,0-.34,2.21q1.67,5.07,3.38,10.13c.17.49.26,1.26,1,1s.41-.94.36-1.47c-.36-3.72-1.43-7.35-1.41-11.12,0-.61-.49-1.18-1-1.08S120.62,8.11,120.17,8.92Z" transform="translate(0.08 -0.83)"/><path class="cls-4" d="M120.21,23.89c-1.34-1.56-2.69-3.14-4-4.7-.71-.8-1.53-1.7-2.56-.6s-.11,1.83.83,2.42l5.37,3.36Z" transform="translate(0.08 -0.83)"/><path class="cls-4" d="M130.26,20.77l3.15-6.47c.37-.77.41-1.47-.51-1.85s-1.27.43-1.49,1.13c-.73,2.33-1.42,4.67-2.13,7Z" transform="translate(0.08 -0.83)"/><path class="cls-5" d="M113.49,44.82l-.17-.4-.15.4Z" transform="translate(0.08 -0.83)"/><path class="cls-6" d="M149.5,41.62c2.15.75,1.74,2.14,1.4,3.46-1.71,6.76-12.64,11.88-19,8.91-.69-.33-1.5-.59-.83-1.61.26-.4.55-.89.06-1.23s-1,.11-1.42.52A5.16,5.16,0,0,0,128.35,55c0,1.41,0,1.52,1.43.88.77-.34,1.27.09,1.84.27,6.49,2,12-.47,17.22-3.87,2.27-1.49,2.48-4.27,3.46-6.56.36-.86-.18-2.34,1.75-2.14.68.07.39-.93,0-1.27C152.83,41.39,151.58,40.58,149.5,41.62Z" transform="translate(0.08 -0.83)"/><path class="cls-6" d="M128.26,44c-.56,1.29-2.15,1.79-2.08,3.52,2.52-.29,4.41-2.29,7-2.39.91,0,.38-1-.05-1.5-1.63-2-8-2.75-10.09-1.26-.61.43-1,1-.61,1.69.54,1,1,0,1.57-.13C125.35,43.62,126.74,42.5,128.26,44Z" transform="translate(0.08 -0.83)"/><path class="cls-6" d="M144.45,35.1c-1.2-1-2.6-2-3.74-.58-1.32,1.65,0,3.21,1.13,4.45.93,1,2.38,1.83,3.44.59C146.63,38,145.45,36.42,144.45,35.1Z" transform="translate(0.08 -0.83)"/></svg>